<mxfile host="app.diagrams.net" modified="2022-09-30T23:08:25.688Z" agent="5.0 (Windows NT 10.0; Win64; x64) AppleWebKit/537.36 (KHTML, like Gecko) Chrome/104.0.5112.102 Safari/537.36 OPR/90.0.4480.117" etag="PsKMrPRmYU9WOkH_XJTw" version="20.3.7" type="github">
  <diagram id="XNl6Oud3glyFYDX8OTkO" name="PÃ¡gina-1">
    <mxGraphModel dx="997" dy="540" grid="1" gridSize="10" guides="1" tooltips="1" connect="1" arrows="1" fold="1" page="1" pageScale="1" pageWidth="827" pageHeight="1169" math="0" shadow="0">
      <root>
        <mxCell id="0" />
        <mxCell id="1" parent="0" />
        <mxCell id="7D0oZjbE4iX6M2Z7mogd-2" value="Funcionario&lt;br&gt;" style="shape=umlActor;verticalLabelPosition=bottom;verticalAlign=top;outlineConnect=0;fillColor=default;fontStyle=0;html=1;horizontal=1;" parent="1" vertex="1">
          <mxGeometry x="30" y="200" width="30" height="60" as="geometry" />
        </mxCell>
        <mxCell id="z0y0lZXKgXAS5gJQosTc-6" value="Aluno" style="shape=umlActor;verticalLabelPosition=bottom;verticalAlign=top;outlineConnect=0;fillColor=default;fontStyle=0;html=1;horizontal=1;" parent="1" vertex="1">
          <mxGeometry x="760" y="200" width="30" height="60" as="geometry" />
        </mxCell>
        <mxCell id="KaIShi0xX0dBVwtN4p4v-10" value="Gerente" style="shape=umlActor;verticalLabelPosition=bottom;verticalAlign=top;outlineConnect=0;fillColor=default;fontStyle=0;html=1;horizontal=1;" parent="1" vertex="1">
          <mxGeometry x="30" y="580" width="30" height="60" as="geometry" />
        </mxCell>
      </root>
    </mxGraphModel>
  </diagram>
</mxfile>
